<svg id="Layer_1" data-name="Layer 1" xmlns="http://www.w3.org/2000/svg" xmlns:xlink="http://www.w3.org/1999/xlink" viewBox="0 0 72 72"><defs><style>.cls-1{fill:none;}.cls-2{clip-path:url(#clip-path);}.cls-3{fill:#cfd0d2;}.cls-4{fill:#989a9d;}.cls-5{fill:#2e2b2c;}.cls-6{fill:#2f2d2e;}.cls-7{fill:#343334;}.cls-8{fill:#363435;}.cls-9{fill:#424143;}.cls-10{fill:#2e2c2d;}</style><clipPath id="clip-path"><rect class="cls-1" x="18.32" y="2.8" width="35.36" height="66.93"/></clipPath></defs><g class="cls-2"><path class="cls-3" d="M36,69.72H19.61c-1.19,0-1.64-.88-1-1.9.52-.8,1.08-1.58,1.64-2.36l9.61-13.55a8,8,0,0,0,1.46-4.69c0-6.07,0-12.13,0-18.2a4.37,4.37,0,0,0-.24-1.48,1.39,1.39,0,0,0-1.21-1.11,1.35,1.35,0,0,1-1.12-1.15A1.18,1.18,0,0,1,29.37,24a3.33,3.33,0,0,1,2-.54c3.14,0,6.27,0,9.41,0a3.62,3.62,0,0,1,1.89.45,1.23,1.23,0,0,1,.68,1.34,1.43,1.43,0,0,1-1.05,1.17,1.85,1.85,0,0,0-1.55,2c0,.21,0,.41,0,.61q0,9.17,0,18.34a8,8,0,0,0,1.56,4.76l11,15.57a2.41,2.41,0,0,1,.35.72.94.94,0,0,1-.58,1.19,2.41,2.41,0,0,1-1,.15H36"/><path class="cls-4" d="M42.54,4.1a1.28,1.28,0,0,1-1.26,1.3,1.3,1.3,0,1,1,0-2.6,1.29,1.29,0,0,1,1.27,1.3"/><path class="cls-4" d="M34.52,9.93a1.28,1.28,0,0,1,1.3,1.31,1.32,1.32,0,0,1-1.28,1.29,1.28,1.28,0,0,1-1.29-1.32,1.26,1.26,0,0,1,1.27-1.28"/><path class="cls-4" d="M38.51,20.63a1.28,1.28,0,0,1-1.32-1.29A1.31,1.31,0,0,1,38.46,18a1.35,1.35,0,0,1,1.33,1.31,1.3,1.3,0,0,1-1.28,1.29"/><path class="cls-4" d="M36,67.61c-3.81,0-7.62,0-11.43,0-.8,0-1.6-.1-2.4-.12-.41,0-.35-.15-.18-.42,1.84-3,4-5.82,6-8.73C29,57,30,55.62,31,54.23c.4-.58.92-1.06,1.32-1.64a.57.57,0,0,1,.43-.22,27.88,27.88,0,0,1,6.52,0,.72.72,0,0,1,.51.27C40.94,54,41.94,55.53,43,57q3,4.25,6,8.51c.39.55.71,1.14,1.06,1.71.13.2,0,.26-.16.27-.6,0-1.2.1-1.8.11H36"/><path class="cls-5" d="M36.5,38.73h3v.08h-3v-.08"/><path class="cls-6" d="M39.5,28.87h-3v-.09h3v.09"/><path class="cls-7" d="M39.53,30.87H37.34s0-.06,0-.09h2.2v.09"/><path class="cls-8" d="M39.53,32.87H37.34v-.1h2.19v.1"/><path class="cls-9" d="M37.34,40.72h2.2v.1h-2.2v-.1"/><path class="cls-5" d="M37.35,42.73h2.18v.09H37.35v-.09"/><path class="cls-10" d="M37.37,34.76h2.14v.08H37.37v-.08"/><path class="cls-5" d="M39.5,46.81H37.37a.22.22,0,0,1,0-.08H39.5v.08"/><path class="cls-5" d="M39.48,36.83H37.37v-.07h2.15a.25.25,0,0,0,0,.07"/><path class="cls-5" d="M39.51,44.81H37.39v-.06h2.12v.06"/></g></svg>