<svg id="Layer_1" data-name="Layer 1" xmlns="http://www.w3.org/2000/svg" xmlns:xlink="http://www.w3.org/1999/xlink" viewBox="0 0 72 72"><defs><style>.cls-1{fill:none;}.cls-2{clip-path:url(#clip-path);}.cls-3{fill:#717275;}.cls-4{fill:#abadb0;}.cls-5{fill:#bdbfc1;}.cls-6{fill:#fff;}</style><clipPath id="clip-path"><rect class="cls-1" x="18.97" y="2.96" width="34.06" height="66.6"/></clipPath></defs><g class="cls-2"><path class="cls-3" d="M45.86,62.06l4.22,6c.24.34.51.69.29,1.12s-.67.41-1.08.41H20.13c-.41,0-.85,0-1.08-.42s.08-.79.31-1.12q5.15-7.26,10.3-14.53a3.12,3.12,0,0,1,2.72-1.39H37.1a3.07,3.07,0,0,1,2.67,1.38q1.47,2.09,2.95,4.15c.13.18.22.4.44.5s.42.21.57.4c.63.85,1.2,1.73,1.83,2.57a2.82,2.82,0,0,1,.3,1"/><path class="cls-3" d="M37.4,25.54c-.34,1.21-.7,2.43-1,3.65a1.46,1.46,0,0,1-1.44,1.26c-1,.24-2-.29-2.92-.52s-1.94-.52-2.9-.79a4.61,4.61,0,0,1-2.28-1,1.57,1.57,0,0,1-.35-1.65Q29.24,16.55,32,6.63a1.64,1.64,0,0,1,.87-1.13,4.48,4.48,0,0,1,2.09,0c1.52.47,3.06.87,4.6,1.29a3.84,3.84,0,0,1,1.9.89,1.52,1.52,0,0,1,.42,1.73c-.57,2-1.11,4-1.67,6-.2.47-.68.39-1,.5a5,5,0,0,0-3.42,3,5.1,5.1,0,0,0,1.1,5.68c.23.26.73.39.57.91"/><path class="cls-4" d="M45.86,62.06l-2.45-3.45c-.1-.15-.16-.32-.25-.48.4-.63.8-1.24,1.18-1.87a28.54,28.54,0,0,0-.18-30.09c-.14-.23-.31-.43-.47-.65s-.07-.43.11-.57a5.68,5.68,0,0,0,1.75-2.82c.05-.17.09-.37.33-.38.06-.17.12-.34.21-.57a23.32,23.32,0,0,1,2,2.89A32.93,32.93,0,0,1,46.2,61.43a1.18,1.18,0,0,0-.34.63"/><path class="cls-5" d="M26.83,28.11c2.53.85,5.14,1.45,7.7,2.21l.4.13c-.25.13-.3.37-.37.61-.3,1.08-.59,2.17-.9,3.25a1.48,1.48,0,0,1-2.09,1.16l-4.14-1.15c-1.23-.35-1.57-1-1.23-2.21.28-1,.55-2,.85-3a.84.84,0,0,0-.22-1"/><path class="cls-3" d="M27.77,49.14h6.82c.44,0,.6.1.6.57,0,1.4,0,1.4-1.37,1.4-4.25,0-8.51,0-12.76,0-.58,0-.79-.11-.76-.73,0-1.24,0-1.25,1.27-1.25h6.2"/><path class="cls-6" d="M45.88,21.75A5.17,5.17,0,0,1,44.19,25c-.17.17-.4.28-.5.52a7,7,0,0,0-1.11.52,5.82,5.82,0,0,1-5.18-.51,5.54,5.54,0,0,1-2.34-3.8,5.45,5.45,0,0,1,4.53-6.2l.6-.09a5.57,5.57,0,0,1,5.75,4.72c.1.54-.14,1.05-.06,1.59"/><path class="cls-5" d="M41.44,7.7,33.82,5.55a3.52,3.52,0,0,0-1,0c.79-.07.95-.64,1.11-1.28a1.47,1.47,0,0,1,2-1.17l4.26,1.19a1.51,1.51,0,0,1,1.19,2c-.1.46-.52,1,0,1.42"/><path class="cls-3" d="M45.05,20.93a4.57,4.57,0,1,1-4.57-4.57,4.56,4.56,0,0,1,4.57,4.57"/></g></svg>