<svg id="Layer_1" data-name="Layer 1" xmlns="http://www.w3.org/2000/svg" viewBox="0 0 72 72"><defs><style>.cls-1{fill:none;stroke:#bcbec0;stroke-width:10px;}.cls-2{fill:#bcbec0;}.cls-3{fill:#6d6e71;}.cls-4{fill:#fff;stroke:#6d6e71;stroke-width:2px;}</style></defs><line class="cls-1" x1="16.21" y1="33.62" x2="46.95" y2="33.62"/><polygon class="cls-2" points="52.32 33.62 43.75 25.66 43.75 41.59 52.32 33.62"/><path class="cls-3" d="M54.94,38.9s0,0,0,0h0l.27.09.55.19a7.13,7.13,0,0,0,0,.79L55,40.4l.06.34a.29.29,0,0,1,0,.09v0s0,0,0,0h.17l.71,0c0,.19.11.36.17.54a1.8,1.8,0,0,1,.08.21l-.45.37-.22.19,0,0s0,0,0,0l0,.07.06.13.06.13,0,.07s0,0,0,0h0l.29-.06.57-.11a7,7,0,0,0,.44.67l-.34.47-.16.23s0,0,0,.06l.05.06.09.11.1.11,0,0s0,0,.06,0l.27-.13.52-.25a7.57,7.57,0,0,0,.6.53c-.07.18-.14.36-.2.54s-.07.18-.1.27,0,0,0,.06l.06,0,.12.09a.57.57,0,0,1,.13.08l.06,0a0,0,0,0,0,0,0l.22-.19.44-.38a5.37,5.37,0,0,0,.72.36c0,.19,0,.39-.05.58l0,.28v0s0,0,0,0l.07,0,.14,0,.14.05.07,0s0,0,0,0l0,0,.17-.24c.1-.16.21-.32.32-.47a7.2,7.2,0,0,0,.78.16c0,.19.07.38.11.57a2.74,2.74,0,0,0,0,.28.08.08,0,0,0,0,0s0,0,0,0h.07l.14,0h.25s0,0,0,0l.1-.27c.06-.19.13-.37.19-.55a7.14,7.14,0,0,0,.8,0c.08.17.16.35.25.52l.12.26a.06.06,0,0,1,0,0h.11l.14,0,.14,0,.07,0s0,0,0,0v0a2.83,2.83,0,0,1,0-.29c0-.19,0-.38,0-.57a6.75,6.75,0,0,0,.76-.25l.37.44.19.22,0,0s0,0,0,0l.07,0,.13,0,.13-.07.06,0s0,0,0,0,0,0,0,0L66,45.59c0-.19-.07-.37-.11-.57a5.87,5.87,0,0,0,.67-.43l.48.33.24.17s0,0,.06,0l.06-.05.11-.09.11-.1,0,0s0,0,0-.06l-.12-.26c-.09-.17-.18-.34-.26-.52a5,5,0,0,0,.53-.59l.55.2.28.1s0,0,0,0l0-.06.08-.12a.36.36,0,0,0,.08-.12l0-.06s0,0,0,0-.13-.15-.19-.22l-.39-.43a6.85,6.85,0,0,0,.37-.71l.58.05.29,0h0s0,0,0,0a.36.36,0,0,0,0-.07.78.78,0,0,0,0-.14s0-.09,0-.14a.64.64,0,0,0,0-.07s0,0,0,0l0,0-.24-.15L69,41a6.57,6.57,0,0,0,.16-.77l.58-.1.28,0h0s0,0,0,0,0-.05,0-.07a.66.66,0,0,0,0-.14.71.71,0,0,0,0-.14.15.15,0,0,1,0-.07s0,0,0,0h0l-.27-.09-.56-.19a7,7,0,0,0,0-.79l.53-.25.27-.12h0s0,0,0,0V38a.78.78,0,0,1,0-.14l0-.15a.64.64,0,0,1,0-.07s0,0,0,0h0l-.29,0-.58,0a6.75,6.75,0,0,0-.25-.76l.45-.37.22-.18,0,0s0,0,0,0l0-.07L69.38,36l-.06-.13a.16.16,0,0,0,0-.07s0,0,0,0h0l-.29.06-.57.11a5.82,5.82,0,0,0-.44-.66c.11-.16.22-.32.34-.47l.16-.24s0,0,0,0l0-.06-.09-.11a.52.52,0,0,0-.1-.11l0-.06s0,0-.05,0l-.27.13-.52.25a7.45,7.45,0,0,0-.6-.52c.07-.18.14-.37.2-.55l.1-.27s0,0,0-.05l-.07,0-.12-.08L66.7,33l-.06,0s0,0-.06,0l-.22.19-.44.37a7.86,7.86,0,0,0-.71-.36c0-.19,0-.38.05-.57l0-.29v0s0,0,0,0l-.07,0-.13-.06-.14,0-.07,0s0,0,0,0l0,0-.16.24-.33.48a6.91,6.91,0,0,0-.79-.16c0-.19-.06-.38-.1-.57s0-.19-.05-.28,0,0,0,0,0,0,0,0H62.9s0,0,0,0a.08.08,0,0,1,0,0l-.09.27-.19.54a7.16,7.16,0,0,0-.8,0c-.08-.18-.16-.35-.25-.53l-.12-.26,0,0s0,0,0,0h-.07l-.14,0-.15,0-.07,0s0,0,0,0,0,0,0,0,0,.19,0,.28,0,.39,0,.58a6.75,6.75,0,0,0-.76.25l-.37-.45a2,2,0,0,1-.19-.22l0,0s0,0,0,0l-.06,0-.14.06-.13.06-.07,0a0,0,0,0,0,0,0,0,0,0,0,1,0,0l.06.28c0,.19.07.38.11.57a7.65,7.65,0,0,0-.67.43l-.48-.33-.24-.16s0,0-.06,0l-.06,0-.11.1-.11.09,0,0s0,0,0,.06l.12.26c.09.17.18.34.26.52a7.41,7.41,0,0,0-.54.58L56.72,35l-.27-.1s0,0-.06,0l0,.06a.83.83,0,0,0-.08.12l-.09.12,0,.06s0,0,0,.06.13.14.19.22l.39.43a6.7,6.7,0,0,0-.37.7l-.58,0-.29,0h0s0,0,0,0,0,0,0,.07a1.12,1.12,0,0,0-.05.13,1.21,1.21,0,0,0,0,.14.64.64,0,0,1,0,.07s0,0,0,0l0,0,.24.16.48.32a7.2,7.2,0,0,0-.16.78l-.58.1-.28,0h0s0,0,0,0a.15.15,0,0,0,0,.07.61.61,0,0,0,0,.14v.14a.17.17,0,0,1,0,.07m4.71,1.62a3.08,3.08,0,0,1,1.62-4.09A3.16,3.16,0,0,1,65.41,38a3.09,3.09,0,0,1-1.61,4.09,3.18,3.18,0,0,1-4.15-1.59"/><path class="cls-4" d="M39.47,38.58a6.35,6.35,0,0,0-6.35-6.35h0a10.85,10.85,0,0,0-20.71-3.49c-.31,0-.62-.09-1-.09a8.14,8.14,0,0,0,0,16.28h21.7A6.35,6.35,0,0,0,39.47,38.58Z"/><path class="cls-3" d="M51,27.69s0,0,0,0h0l.2.07.39.14a5.68,5.68,0,0,0,0,.59l-.6.29a2.38,2.38,0,0,0,.05.26s0,0,0,.06a.1.1,0,0,0,0,0s0,0,0,0h.12l.51,0a3.71,3.71,0,0,0,.12.41.94.94,0,0,0,.06.15l-.33.28-.16.14,0,0a0,0,0,0,0,0,0s0,0,0,.05l0,.09a.93.93,0,0,0,.05.1.17.17,0,0,1,0,.05l0,0s0,0,0,0l.21,0,.41-.08a5.19,5.19,0,0,0,.31.5l-.24.35-.12.17s0,0,0,0l0,0,.07.08.07.09,0,0a0,0,0,0,0,0,0l.19-.1.38-.19a5.33,5.33,0,0,0,.42.4l-.14.41c0,.06-.05.13-.07.2a0,0,0,0,0,0,0l0,0,.08.06.09.07a.05.05,0,0,1,0,0s0,0,.05,0l.15-.14.32-.28a4.11,4.11,0,0,0,.51.27c0,.14,0,.28,0,.43a1.49,1.49,0,0,1,0,.21v0s0,0,0,0l0,0,.1,0,.09,0,.06,0h0s0,0,0,0l.12-.18.23-.36a5.78,5.78,0,0,0,.57.12c0,.14,0,.29.07.43l0,.21a0,0,0,0,1,0,0h.35v0c0-.07,0-.14.07-.2s.09-.28.13-.41a5.49,5.49,0,0,0,.58,0l.18.39c0,.06.06.13.08.19l0,0s0,0,0,0h.05l.1,0,.1,0h.06a0,0,0,0,0,0,0s0,0,0,0V33.2l0-.43a3.13,3.13,0,0,0,.54-.19c.1.11.18.22.27.34l.14.16s0,0,0,0h0l.05,0,.09,0,.09-.05,0,0s0,0,0,0v0a1.7,1.7,0,0,0,0-.22c0-.14,0-.28-.08-.42a4.07,4.07,0,0,0,.48-.33l.35.25.17.13s0,0,0,0l0,0,.08-.07.08-.07,0,0s0,0,0,0l-.09-.2c-.07-.13-.13-.26-.19-.38a3.86,3.86,0,0,0,.38-.44l.4.14.19.08s0,0,0,0a.05.05,0,0,0,0,0l.07-.09.06-.09L61,31s0,0,0,0l-.14-.16-.27-.33a4.34,4.34,0,0,0,.26-.53l.42,0,.21,0h0s0,0,0,0a.08.08,0,0,0,0-.05.3.3,0,0,0,0-.1l0-.1s0,0,0-.05,0,0,0,0h0l-.17-.12-.35-.24a5.41,5.41,0,0,0,.12-.58l.41-.08.2,0h0s0,0,0,0V28.5a.34.34,0,0,0,0-.1.41.41,0,0,0,0-.11v-.05s0,0,0,0h0l-.19-.07-.4-.14q0-.3,0-.6l.38-.18.19-.09h0s0,0,0,0V27a.36.36,0,0,1,0-.11.36.36,0,0,1,0-.1.13.13,0,0,1,0-.06v0h-.24l-.41,0c-.06-.19-.11-.38-.18-.57l.32-.27a1.07,1.07,0,0,1,.16-.14s0,0,0,0,0,0,0,0,0,0,0-.05l0-.1a.93.93,0,0,1,0-.1s0,0,0,0,0,0,0,0h0l-.21.05-.41.08a5.19,5.19,0,0,0-.31-.5l.24-.35.12-.18s0,0,0,0l0-.05-.07-.08-.07-.08,0,0s0,0,0,0l-.19.09c-.12.07-.25.13-.38.19a5.23,5.23,0,0,0-.42-.39l.14-.41c0-.06.05-.13.07-.2a0,0,0,0,0,0,0l0,0-.09-.06-.09-.06,0,0s0,0,0,0l-.16.15-.32.28a4.11,4.11,0,0,0-.51-.27c0-.14,0-.28,0-.43a1.49,1.49,0,0,1,0-.21v0h0l0,0-.1,0-.1,0h0s0,0,0,0a0,0,0,0,0,0,0l-.12.18-.23.36a5.66,5.66,0,0,0-.56-.13c0-.14-.05-.28-.08-.42l0-.22a0,0,0,0,0,0,0s0,0,0,0h-.31s0,0,0,0v0c0,.07,0,.14-.07.21s-.09.27-.13.41a5.49,5.49,0,0,0-.58,0c-.06-.13-.12-.26-.17-.39l-.09-.2v0a0,0,0,0,0,0,0h0l-.1,0-.1,0,0,0s0,0,0,0a0,0,0,0,0,0,0c0,.08,0,.15,0,.22l0,.43a4.88,4.88,0,0,0-.54.18L54.39,23l-.14-.16s0,0,0,0h0l0,0-.1,0L54,23l0,0s0,0,0,0,0,0,0,0,0,.14,0,.21,0,.29.08.43a4,4,0,0,0-.48.32l-.34-.25L53,23.6s0,0,0,0a.08.08,0,0,1,0,0l-.08.07-.08.07,0,0s0,0,0,.05l.1.19.18.39a5.2,5.2,0,0,0-.38.44l-.4-.15-.19-.07h0l0,.05a.41.41,0,0,0-.05.09.24.24,0,0,0-.06.09s0,0,0,0,0,0,0,0l.13.16c.1.1.19.21.28.32A5.2,5.2,0,0,0,52,26l-.42,0-.21,0h0s0,0,0,0a.43.43,0,0,1,0,0,1,1,0,0,1,0,.1l0,.11s0,0,0,.05,0,0,0,0l0,0,.18.12.34.24a5.41,5.41,0,0,0-.12.58l-.41.07-.2,0h0s0,0,0,0v.05a.41.41,0,0,0,0,.11s0,.07,0,.1v.06m3.37,1.21a2.35,2.35,0,0,1,1.15-3.06,2.22,2.22,0,0,1,3,1.19,2.36,2.36,0,0,1-1.16,3.06,2.22,2.22,0,0,1-3-1.19"/></svg>